<svg id="Your_Design" data-name="Your Design" xmlns="http://www.w3.org/2000/svg" viewBox="0 0 130.6 163.32"><defs><style>.cls-1,.cls-4{fill:none;}.cls-1,.cls-2,.cls-4{stroke:#ea501d;stroke-miterlimit:10;}.cls-1,.cls-2{stroke-width:4px;}.cls-2{fill:#fff;}.cls-3{fill:#ea501d;}</style></defs><title>logo-full-orange</title><line class="cls-1" x1="41.33" y1="20.31" x2="62.42" y2="56.72"/><line class="cls-1" x1="50.19" y1="24.74" x2="63.75" y2="56.11"/><line class="cls-1" x1="56.06" y1="23.08" x2="64.81" y2="55.54"/><line class="cls-1" x1="58.38" y1="0.82" x2="66.02" y2="55.54"/><line class="cls-1" x1="67.48" y1="55.54" x2="67.36"/><line class="cls-1" x1="68.46" y1="55.66" x2="74.69" y2="7.34"/><line class="cls-1" x1="69.52" y1="55.9" x2="82.23" y2="8.88"/><line class="cls-1" x1="70.71" y1="56.33" x2="85.12" y2="21.26"/><line class="cls-1" x1="71.83" y1="56.91" x2="90.97" y2="24.22"/><line class="cls-1" x1="72.79" y1="57.59" x2="106.65" y2="13.32"/><line class="cls-1" x1="73.84" y1="58.57" x2="113.24" y2="19.51"/><line class="cls-1" x1="74.5" y1="59.39" x2="100.66" y2="39.31"/><line class="cls-1" x1="75.12" y1="60.37" x2="103.82" y2="44.13"/><line class="cls-1" x1="61.44" y1="57.35" x2="35.48" y2="24.09"/><line class="cls-1" x1="60.43" y1="58.21" x2="21.15" y2="19.11"/><line class="cls-1" x1="59.56" y1="59.2" x2="15.43" y2="25.43"/><line class="cls-1" x1="58.82" y1="60.32" x2="30.9" y2="44.2"/><line class="cls-1" x1="60.68" y1="71.74" x2="21.08" y2="111.34"/><line class="cls-1" x1="23.03" y1="99.23" x2="59.75" y2="70.76"/><line class="cls-1" x1="18.59" y1="93.17" x2="59" y2="69.71"/><line class="cls-1" x1="27.74" y1="116.92" x2="61.57" y2="72.46"/><line class="cls-1" x1="39.65" y1="113.02" x2="62.76" y2="73.18"/><line class="cls-1" x1="46.31" y1="116.04" x2="63.77" y2="73.61"/><line class="cls-1" x1="64.89" y1="73.94" x2="52.02" y2="121.7"/><line class="cls-1" x1="66.01" y1="74.13" x2="59.83" y2="123.04"/><line class="cls-1" x1="66.96" y1="74.17" x2="67.21" y2="116.78"/><line class="cls-1" x1="68.45" y1="74.05" x2="75.22" y2="122.26"/><line class="cls-1" x1="69.52" y1="73.81" x2="78.86" y2="108.58"/><line class="cls-1" x1="70.66" y1="73.41" x2="84.58" y2="106.49"/><line class="cls-1" x1="71.58" y1="72.95" x2="91.04" y2="106.49"/><line class="cls-1" x1="72.72" y1="72.17" x2="96.35" y2="102.79"/><line class="cls-1" x1="73.68" y1="71.31" x2="113.31" y2="111.34"/><line class="cls-1" x1="74.38" y1="70.48" x2="119.16" y2="104.47"/><line class="cls-1" x1="115.73" y1="93.24" x2="74.96" y2="69.63"/><line class="cls-1" x1="29.58" y1="80.72" x2="58.46" y2="68.67"/><line class="cls-1" x1="28.37" y1="49.35" x2="58.28" y2="61.5"/><line class="cls-2" x1="104.62" y1="49.35" x2="75.59" y2="61.34"/><line class="cls-1" x1="119.02" y1="86.2" x2="75.46" y2="68.28"/><line class="cls-1" x1="106.56" y1="54.65" x2="75.98" y2="62.51"/><line class="cls-1" x1="116.25" y1="58.41" x2="76.28" y2="63.69"/><line class="cls-1" x1="130.07" y1="82.11" x2="76.03" y2="67.39"/><line class="cls-1" x1="27.9" y1="75.7" x2="58.04" y2="67.56"/><line class="cls-1" x1="2.03" y1="47.68" x2="57.88" y2="62.74"/><line class="cls-1" x1="0.26" y1="56.6" x2="57.64" y2="64.04"/><line class="cls-1" x1="57.64" y1="64.86" x2="33.51" y2="64.86"/><line class="cls-1" x1="57.73" y1="66.11" x2="10.08" y2="71.47"/><line class="cls-1" x1="76.28" y1="66" x2="123.55" y2="73.06"/><line class="cls-1" x1="76.28" y1="64.86" x2="105.6" y2="64.37"/><path class="cls-3" d="M51.36,163.68H45.15l-1.26,3.66H41.26l6-16.39h2.07l6,16.39H52.63Zm-.71-2.21-2.37-7.16h0l-2.37,7.16Z" transform="translate(-31.66 -16.5)"/><path class="cls-3" d="M56.79,155.67h2.35v1.24h0a3.91,3.91,0,0,1,5.48-.48l-1.71,2a2.45,2.45,0,0,0-1.54-.58,2.2,2.2,0,0,0-1.54.58,2.3,2.3,0,0,0-.74,1.86v7H56.79Z" transform="translate(-31.66 -16.5)"/><path class="cls-3" d="M65.88,152.12h2.35v3.55h1.71v1.79H68.23v6.8q0,.88.84.87h.87v2.21H68.72a2.79,2.79,0,0,1-2-.76,2.72,2.72,0,0,1-.81-2.12v-7H64.72v-1.79h1.16Z" transform="translate(-31.66 -16.5)"/><path class="cls-3" d="M76.18,165.27a3.12,3.12,0,0,0,1.65-.39,1.22,1.22,0,0,0,.64-1.1,1,1,0,0,0-.38-.88,2,2,0,0,0-1-.28L75,162.44a4,4,0,0,1-2.4-1,3,3,0,0,1-1-2.33,3.15,3.15,0,0,1,1.27-2.69,5,5,0,0,1,3.08-.9,9.09,9.09,0,0,1,1.45.1,7.53,7.53,0,0,1,1.2.31,7.14,7.14,0,0,1,1.93,1.18l-1.45,1.7a7.38,7.38,0,0,0-1.42-.8,5,5,0,0,0-1.71-.28,2.26,2.26,0,0,0-1.54.4,1.26,1.26,0,0,0-.46,1,.78.78,0,0,0,.34.68,2,2,0,0,0,1.2.42l1.93.14a3.61,3.61,0,0,1,2.63,1.11,3.71,3.71,0,0,1,.75,2.39,3,3,0,0,1-1.38,2.62,6,6,0,0,1-3.45,1,7.4,7.4,0,0,1-5.14-2.1l1.64-1.6A4.9,4.9,0,0,0,76.18,165.27Z" transform="translate(-31.66 -16.5)"/><path class="cls-3" d="M88.93,151h6.35a5.06,5.06,0,0,1,3.63,1.22,4.27,4.27,0,0,1,1.22,3.18,3.69,3.69,0,0,1-.48,1.93,3.14,3.14,0,0,1-.74.83,5.67,5.67,0,0,1-1.19.76v0a3.28,3.28,0,0,1,2,1.41,4.53,4.53,0,0,1,.64,2.37,4.48,4.48,0,0,1-1.33,3.36,4.36,4.36,0,0,1-3.22,1.29h-6.9Zm2.48,2.22v4.68H95a2.59,2.59,0,0,0,2-.7,2.25,2.25,0,0,0,.65-1.65,2.37,2.37,0,0,0-.65-1.67,2.78,2.78,0,0,0-2-.66Zm0,6.9V165h3.82a2.57,2.57,0,0,0,2-.75,2.48,2.48,0,0,0,.65-1.71,2.51,2.51,0,0,0-.65-1.73,2.64,2.64,0,0,0-2-.73Z" transform="translate(-31.66 -16.5)"/><path class="cls-3" d="M104.53,162.4a2.73,2.73,0,0,0,.81,2.13,2.66,2.66,0,0,0,2,.74,3.53,3.53,0,0,0,2.56-1.13l1.69,1.45a5.53,5.53,0,0,1-4.2,1.89,6.14,6.14,0,0,1-1.8-.27,4.11,4.11,0,0,1-.85-.4,4,4,0,0,1-.82-.53,4.57,4.57,0,0,1-1.21-1.82,7.3,7.3,0,0,1-.5-2.92,8,8,0,0,1,.44-2.88,4.92,4.92,0,0,1,1.12-1.84,4.22,4.22,0,0,1,1.56-1,5.07,5.07,0,0,1,1.69-.3,4.83,4.83,0,0,1,3.38,1.31,4.77,4.77,0,0,1,1.43,3.62v1.94Zm4.92-1.94a2.94,2.94,0,0,0-.73-2.05,2.57,2.57,0,0,0-3.46,0,3.08,3.08,0,0,0-.73,2.05Z" transform="translate(-31.66 -16.5)"/><path class="cls-3" d="M120.39,166.31h0a1.93,1.93,0,0,1-1,.87,4.7,4.7,0,0,1-1.87.3,4.27,4.27,0,0,1-3-1,3.23,3.23,0,0,1-1.11-2.53,3.3,3.3,0,0,1,1-2.44,3.85,3.85,0,0,1,2.83-1h3.25v-1.22q0-1.55-2.4-1.5a4.27,4.27,0,0,0-1.38.18,1.66,1.66,0,0,0-.83.72l-1.85-1.4a4.56,4.56,0,0,1,3.95-1.71,6.23,6.23,0,0,1,3.52.83,3.42,3.42,0,0,1,1.34,3v8h-2.35Zm0-3.91h-2.81c-1.37,0-2,.49-2,1.4a1.24,1.24,0,0,0,.53,1,2.46,2.46,0,0,0,1.68.46,4,4,0,0,0,2.08-.35c.36-.24.55-.8.55-1.68Z" transform="translate(-31.66 -16.5)"/><path class="cls-3" d="M134.36,165.45a6.25,6.25,0,0,1-1.8,1.43,5.13,5.13,0,0,1-2.39.6,5.29,5.29,0,0,1-3.64-1.41,5.88,5.88,0,0,1-1.66-4.55,6,6,0,0,1,1.66-4.61,5.17,5.17,0,0,1,3.64-1.38,5.23,5.23,0,0,1,2.39.56,6.06,6.06,0,0,1,1.8,1.47l-1.73,1.54a3,3,0,0,0-2.38-1.22q-3,0-3,3.64t3,3.61a2.9,2.9,0,0,0,2.38-1.22Z" transform="translate(-31.66 -16.5)"/><path class="cls-3" d="M135.41,161.5a9.9,9.9,0,0,1,.31-2.84,4.22,4.22,0,0,1,1-1.63,4.63,4.63,0,0,1,1.35-1,4.94,4.94,0,0,1,2.19-.46,5,5,0,0,1,2.24.46,4.13,4.13,0,0,1,1.3,1,3.65,3.65,0,0,1,1,1.63,10.82,10.82,0,0,1,.29,2.84,10.57,10.57,0,0,1-.29,2.81,3.9,3.9,0,0,1-1,1.67,3.45,3.45,0,0,1-.55.51,2.69,2.69,0,0,1-.75.48,4.75,4.75,0,0,1-2.24.51A4.66,4.66,0,0,1,138,167a4.36,4.36,0,0,1-2.31-2.66A9.67,9.67,0,0,1,135.41,161.5Zm7.28,0a9.82,9.82,0,0,0-.12-1.82,2.13,2.13,0,0,0-.46-1,1.7,1.7,0,0,0-.76-.62,2.65,2.65,0,0,0-1.13-.23,2.71,2.71,0,0,0-1.1.23,2.09,2.09,0,0,0-.78.62,2.61,2.61,0,0,0-.44,1,8.52,8.52,0,0,0-.14,1.8,8.19,8.19,0,0,0,.14,1.77,2.8,2.8,0,0,0,.44,1,2.69,2.69,0,0,0,.78.6,2.57,2.57,0,0,0,1.1.25,2.51,2.51,0,0,0,1.13-.25,2.07,2.07,0,0,0,.76-.6,2.28,2.28,0,0,0,.46-1A9.18,9.18,0,0,0,142.69,161.52Z" transform="translate(-31.66 -16.5)"/><path class="cls-3" d="M147.5,155.67h2.35v1.24h0a3.77,3.77,0,0,1,3-1.38,3.87,3.87,0,0,1,3.9,4.05v7.76h-2.35v-7a2.52,2.52,0,0,0-.65-1.86,2.44,2.44,0,0,0-3.32,0,2.48,2.48,0,0,0-.66,1.86v7H147.5Z" transform="translate(-31.66 -16.5)"/><path class="cls-3" d="M87.53,178.91c.78,0,1.18-.29,1.19-.84s-.26-.72-.78-.81l-.8-.11a1.91,1.91,0,0,1-1.18-.57,1.61,1.61,0,0,1-.42-1.12,1.68,1.68,0,0,1,.52-1.27,2.08,2.08,0,0,1,1.45-.49,3.39,3.39,0,0,1,1.95.63l-.51.75a2.73,2.73,0,0,0-1.49-.46,1.14,1.14,0,0,0-.7.21.74.74,0,0,0-.3.65.64.64,0,0,0,.2.47,1.2,1.2,0,0,0,.65.3l.68.09a1.89,1.89,0,0,1,1.25.61,1.75,1.75,0,0,1,.4,1.12c0,1.15-.74,1.74-2.12,1.75a3.41,3.41,0,0,1-2.3-.82l.6-.69A2.59,2.59,0,0,0,87.53,178.91Z" transform="translate(-31.66 -16.5)"/><path class="cls-3" d="M91.62,174.57H90v-.82h4.22v.82H92.54v5.2h-.92Z" transform="translate(-31.66 -16.5)"/><path class="cls-3" d="M94.72,173.75h.91v3.88a1.23,1.23,0,0,0,.36.94,1.15,1.15,0,0,0,.87.34,1.2,1.2,0,0,0,.88-.34,1.26,1.26,0,0,0,.34-.94v-3.88H99v4a2,2,0,0,1-.62,1.51,2.13,2.13,0,0,1-1.52.58,2.11,2.11,0,0,1-1.51-.58,1.9,1.9,0,0,1-.63-1.51Z" transform="translate(-31.66 -16.5)"/><path class="cls-3" d="M100.16,173.75h2.1a2,2,0,0,1,1.84,1,1.89,1.89,0,0,1,.28.71c0,.25,0,.68,0,1.28a8.45,8.45,0,0,1-.07,1.36,1.52,1.52,0,0,1-.1.34,2.38,2.38,0,0,1-.17.31,2.07,2.07,0,0,1-.73.71,2.18,2.18,0,0,1-1.15.29h-2Zm.91,5.16h1.09a1.26,1.26,0,0,0,1.12-.52,1.07,1.07,0,0,0,.19-.49,9.15,9.15,0,0,0,0-1.1,10.09,10.09,0,0,0,0-1.13,1.06,1.06,0,0,0-.23-.55,1.2,1.2,0,0,0-1.08-.5h-1.09Z" transform="translate(-31.66 -16.5)"/><path class="cls-3" d="M105.49,173.75h.91v6h-.91Z" transform="translate(-31.66 -16.5)"/><path class="cls-3" d="M107.46,176.76a10.32,10.32,0,0,1,.06-1.4,1.71,1.71,0,0,1,.2-.57,2.15,2.15,0,0,1,1.89-1.09,2.15,2.15,0,0,1,1.2.34,2.11,2.11,0,0,1,.69.75,1.36,1.36,0,0,1,.21.57,13.26,13.26,0,0,1,.05,1.4,13.4,13.4,0,0,1-.05,1.4,1.41,1.41,0,0,1-.21.58,2.09,2.09,0,0,1-.69.74,2.15,2.15,0,0,1-1.2.34,2.17,2.17,0,0,1-1.89-1.08l-.12-.26a1.65,1.65,0,0,1-.08-.32A10.43,10.43,0,0,1,107.46,176.76Zm.92,0a7.79,7.79,0,0,0,.06,1.21,1,1,0,0,0,.24.5.88.88,0,0,0,.38.3,1,1,0,0,0,.55.14,1,1,0,0,0,.57-.14.88.88,0,0,0,.36-.3,1.12,1.12,0,0,0,.25-.5,7.79,7.79,0,0,0,.06-1.21,8,8,0,0,0-.06-1.21,1.12,1.12,0,0,0-.25-.5,1.23,1.23,0,0,0-.36-.31,1.26,1.26,0,0,0-.57-.12,1.18,1.18,0,0,0-.55.12,1.2,1.2,0,0,0-.38.31,1,1,0,0,0-.24.5A8,8,0,0,0,108.38,176.76Z" transform="translate(-31.66 -16.5)"/><line class="cls-4" x1="9.57" y1="131.87" x2="128.17" y2="131.87"/><line class="cls-4" x1="9.57" y1="154.43" x2="128.17" y2="154.43"/><path class="cls-3" d="M97.2,82.81H94.07l-.64,1.84H92.11l3-8.26h1l3,8.26H97.84Zm-.36-1.11-1.19-3.61h0l-1.2,3.61Z" transform="translate(-31.66 -16.5)"/><path class="cls-3" d="M98.89,76.39h3.2a2.57,2.57,0,0,1,1.83.61,2.16,2.16,0,0,1,.61,1.61,1.86,1.86,0,0,1-.24,1,1.6,1.6,0,0,1-.37.42,2.93,2.93,0,0,1-.6.38v0a1.7,1.7,0,0,1,1,.71,2.31,2.31,0,0,1,.33,1.2A2.25,2.25,0,0,1,104,84a2.2,2.2,0,0,1-1.63.65H98.89Zm1.25,1.12v2.36h1.8a1.28,1.28,0,0,0,1-.36,1.09,1.09,0,0,0,.33-.82,1.19,1.19,0,0,0-.33-.85,1.44,1.44,0,0,0-1-.33Zm0,3.48v2.48h1.92a1.33,1.33,0,0,0,1-.38,1.3,1.3,0,0,0,0-1.73,1.33,1.33,0,0,0-1-.37Z" transform="translate(-31.66 -16.5)"/></svg>